<?xml version="1.0" encoding="utf-8"?>
<!-- Generator: Adobe Illustrator 22.0.0, SVG Export Plug-In . SVG Version: 6.00 Build 0)  -->
<svg version="1.1" id="图层_1" xmlns="http://www.w3.org/2000/svg" xmlns:xlink="http://www.w3.org/1999/xlink" x="0px" y="0px"
	 viewBox="0 0 78.2 13.6" style="enable-background:new 0 0 78.2 13.6;" xml:space="preserve">
<style type="text/css">
	.st0{fill:#FFFFFF;}
</style>
<g>
	<path class="st0" d="M2.7,2l1.9,2.9l2-2.9h2.2L5.7,6.5l3.2,4.9H6.5l-2-3.1l-2.1,3.1H0.2l3.2-4.7L0.4,2H2.7z"/>
	<path class="st0" d="M11.8,2l1.9,2.9l2-2.9h2.2l-3.1,4.5l3.2,4.9h-2.3l-2-3.1l-2.1,3.1H9.3l3.2-4.7L9.5,2H11.8z"/>
	<path class="st0" d="M18.9,3.7l0.6-2.1h9.4l0.6,2.1h0.3v0.9h-2.4l-0.6-2.1h-5.3l-0.6,2.1h-2.4V3.7H18.9z M18.7,11.6V5.2h10.9v3.9
		h-7.3V8.2h5.2V6.1h-6.6v4.6h8.5v0.9H18.7z"/>
	<path class="st0" d="M37.5,1.8h4.3v0.9h-9.1v8.9h-2.2V1.8h4.7V1.4h2.2V1.8z M37.1,9.3V7.7H33V6.8l0.6-2h-0.5V3.9H34l0.2-0.5h2.2
		l-0.2,0.5h5.7v0.9h-6l-0.7,2h2V5.4h2.2v1.3h2.5v0.9h-2.5v1.7h2.5v0.9h-2.5v1.4h-2.2v-1.4h-4V9.3H37.1z"/>
	<path class="st0" d="M53.6,1.5v3.3H42.7V1.5H53.6z M42.7,5.4h10.9v4h-2.2V6.2h-6.6v3.1h-2.2V5.4z M44.1,10.7l3-2.6V6.7h2.2v1.4
		l3,2.6h1.1v0.9h-2.9l-2.3-2l-2.3,2h-3v-0.9H44.1z M44.9,3.9h6.6V2.3h-6.6V3.9z"/>
	<path class="st0" d="M59.1,10.7V2.4h-4.5V1.5h11.2v0.9h-4.5v8.3h4.5v0.9H54.6v-0.9H59.1z"/>
	<path class="st0" d="M69.7,1.8h1.3v0.9h-4.4V1.8h1.2V1.5h1.9V1.8z M68.6,10.8h0.3l0.3-7.4h1.7l-0.3,7.4h0.3v0.9h-4.4v-0.9h0.3
		l-0.3-7.4h1.7L68.6,10.8z M75.4,3.5H76v-2h1.8v2.9h-6.6V1.5H73v2h0.6v-2h1.9V3.5z M71.2,6.3h2.2l0.1-0.5h-2.2V4.9h6.5v0.9h-2.6
		l-0.1,0.5h2.6v5.3h-1.5V7.2h-0.4v4.4h-1.3V7.2h-0.3v4.4h-1.3V7.2h-0.4v4.4h-1.5V6.3z"/>
</g>
</svg>
