<?xml version="1.0" encoding="utf-8"?>
<!-- Generator: Adobe Illustrator 22.0.0, SVG Export Plug-In . SVG Version: 6.00 Build 0)  -->
<svg version="1.1" id="图层_1" xmlns="http://www.w3.org/2000/svg" xmlns:xlink="http://www.w3.org/1999/xlink" x="0px" y="0px"
	 viewBox="0 0 60 13.6" style="enable-background:new 0 0 60 13.6;" xml:space="preserve">
<style type="text/css">
	.st0{enable-background:new    ;}
</style>
<g class="st0">
	<path d="M0.7,3.7l0.6-2.1h9.4l0.6,2.1h0.3v0.9H9.3L8.7,2.4H3.3L2.7,4.6H0.4V3.7H0.7z M0.6,11.6V5.2h10.9v3.9H4.1V8.2h5.2V6.1H2.7
		v4.6h8.5v0.9H0.6z"/>
	<path d="M19.3,1.8h4.3v0.9h-9.1v8.9h-2.2V1.8h4.7V1.4h2.2V1.8z M18.9,9.3V7.7h-4.1V6.8l0.6-2H15V3.9h0.8l0.2-0.5h2.2l-0.2,0.5h5.7
		v0.9h-6l-0.7,2h2V5.4h2.2v1.3h2.5v0.9h-2.5v1.7h2.5v0.9h-2.5v1.4h-2.2v-1.4h-4V9.3H18.9z"/>
	<path d="M35.4,1.5v3.3H24.6V1.5H35.4z M24.6,5.4h10.9v4h-2.2V6.2h-6.6v3.1h-2.2V5.4z M25.9,10.7l3-2.6V6.7h2.2v1.4l3,2.6h1.1v0.9
		h-2.9l-2.3-2l-2.3,2h-3v-0.9H25.9z M26.7,3.9h6.6V2.3h-6.6V3.9z"/>
	<path d="M40.9,10.7V2.4h-4.5V1.5h11.2v0.9h-4.5v8.3h4.5v0.9H36.4v-0.9H40.9z"/>
	<path d="M51.5,1.8h1.3v0.9h-4.4V1.8h1.2V1.5h1.9V1.8z M50.4,10.8h0.3L51,3.4h1.7l-0.3,7.4h0.3v0.9h-4.4v-0.9h0.3l-0.3-7.4h1.7
		L50.4,10.8z M57.2,3.5h0.6v-2h1.8v2.9H53V1.5h1.8v2h0.6v-2h1.9V3.5z M53,6.3h2.2l0.1-0.5h-2.2V4.9h6.5v0.9h-2.6L57,6.3h2.6v5.3
		h-1.5V7.2h-0.4v4.4h-1.3V7.2h-0.3v4.4h-1.3V7.2h-0.4v4.4H53V6.3z"/>
</g>
</svg>
