<?xml version="1.0" encoding="utf-8"?>
<!-- Generator: Adobe Illustrator 22.0.0, SVG Export Plug-In . SVG Version: 6.00 Build 0)  -->
<svg version="1.1" id="图层_1" xmlns="http://www.w3.org/2000/svg" xmlns:xlink="http://www.w3.org/1999/xlink" x="0px" y="0px"
	 viewBox="0 0 194 170.3" style="enable-background:new 0 0 194 170.3;" xml:space="preserve">
<title>毕设logo</title>
<path d="M25.9,38.2c2.1,10.9,3.6,21.9,4.3,33c0.4,5.7,0.4,11.3-1.7,16.7c-1.8,4.6-4.6,8.8-6.7,13.4c-8.7,18.8-12.1,40.4-17,60.4
	c-0.2,0.8,0.3,1.6,1.1,1.9c0.1,0,0.2,0,0.4,0.1c52.3,5.1,104.8,7.3,157.3,6.6c0.7,0,1.3-0.5,1.4-1.1c9.5-46.2,18.9-92.7,18.2-140.1
	c0-1.9-3-1.9-3,0c0.7,47.1-8.6,93.4-18.1,139.3l1.4-1.1c-52.5,0.7-105-1.5-157.3-6.6l1.4,1.9c5.5-21.9,9-45.8,19.9-65.8
	c2-3.8,4.1-7.5,5.1-11.7c1.1-4.8,0.9-9.7,0.5-14.6c-0.8-11-2.2-22-4.4-32.9C28.4,35.5,25.5,36.3,25.9,38.2z"/>
<path d="M15.5,23.1c27.1,0.4,53.5-5.7,80-10.7c28.2-5.2,56.8-8,85.4-8.5c1.9,0,1.9-3,0-3C153.2,1.3,125.6,4,98.4,8.8
	c-27.5,5-54.8,11.7-82.9,11.3C13.6,20.1,13.6,23.1,15.5,23.1L15.5,23.1z"/>
<path d="M26.4,18.5c-2,20.4-4.5,40.8-7.4,61.1c-0.3,1.9,2.6,2.7,2.9,0.8c2.9-20.6,5.4-41.2,7.5-61.9C29.6,16.5,26.6,16.6,26.4,18.5z
	"/>
<path d="M1.4,107.9c31.9-4.2,63.8-8.3,95.4-13.8c16-2.8,31.8-6,47.7-9.4c15.6-3.4,32.2-6.2,47.3,1c1.7,0.8,3.3-1.8,1.5-2.6
	c-12.8-6.1-26.9-5.6-40.6-3.1c-16.4,3-32.5,6.9-48.9,9.9c-33.9,6.1-68.2,10.6-102.3,15C-0.5,105.1-0.5,108.1,1.4,107.9L1.4,107.9z"
	/>
<path d="M73.6,2.9c5.3,54.8,8.9,109.7,10.6,164.8c0.1,1.9,3.1,1.9,3,0c-1.7-55-5.2-109.9-10.6-164.8C76.4,1,73.4,1,73.6,2.9z"/>
<path d="M44.4,1.5c-0.1,17.6-4.6,34.6-7.6,51.9c-0.6,3.6-2.7,8.5,2,9.6c7.5,1.7,17,0.4,24.7-0.3c1.9-0.2,1.9-3.2,0-3
	c-6.4,0.6-14.1,1.7-20.5,0.5c-5.1-0.9-3.4-4.8-2.7-8.9c0.6-3.4,1.3-6.8,2-10.2c2.6-13.1,5.2-26.2,5.2-39.6c0-0.8-0.7-1.5-1.5-1.5
	C45.1,0,44.4,0.6,44.4,1.5L44.4,1.5z"/>
<path d="M117.6,19.4c-7.8,4.7-16.2,12.7-17.3,22.2c-1,8.2,4.9,15,13.3,13.7c8.9-1.4,19.5-9.6,24.8-16.8c6.1-8.2-6.3-11.5-12.4-12.4
	c-1.9-0.3-2.7,2.6-0.8,2.9c2.7,0.4,6.7,0.8,9,2.5c1.7,0.4,2.2,1.5,1.3,3.3c0.6,1.4,0.1,3-1.2,3.7c-0.9,1-1.9,2-3,2.8
	C126.7,45.7,121,50.2,115,52c-10.7,3.1-13.9-7.8-9.9-15.7c3.2-5.9,8.1-10.9,13.9-14.3c0.7-0.4,0.9-1.4,0.5-2.1
	C119.1,19.3,118.3,19.1,117.6,19.4z"/>
<path d="M49.9,81.7c-8.2,1.8-14.7,7.9-17.1,15.9c-0.2,0.8,0.2,1.6,1,1.8c8.2,1.1,16-6.8,20.1-13l-2.8-0.8
	c-1.8,15.6-8.4,35.8-22.7,44.3c-7.2,4.3-8.2-4.8-8.9-9.8c-0.6-4.5-1-9.1-1.1-13.7c-0.4-9.7,0.1-19.3,1.5-28.9
	c0.3-1.9-2.6-2.7-2.9-0.8c-1.8,12.4-2.1,25-1.1,37.5c0.5,5.2,0.5,21.2,8.9,20.4c8.2-0.8,15.3-10.8,19-17.2
	c5.6-9.7,9.1-20.6,10.3-31.7c0.2-1.6-2.1-1.9-2.8-0.8c-3.1,4.8-10.2,12.5-16.7,11.7l1,1.8c2.1-7,7.8-12.3,15-13.8
	C52.5,84.2,51.7,81.3,49.9,81.7L49.9,81.7z"/>
<path d="M126.9,76c-11.6,5.8-19.7,16.8-21.8,29.6c-1.5,9.3-0.2,28.5,13.6,26.4c5.9-0.9,11.2-5.7,15.8-9.2
	c5.5-4.2,10.5-8.9,15.1-14.1c4.2-4.8,7.7-10.2,10.3-16c2-4.8,1.1-7.9-3.2-10.9c-13.1-9.1-29.5-13.4-45.4-13.6c-1.9,0-1.9,3,0,3
	c13.9,0.1,27.5,3.7,39.6,10.6c4.6,2.6,8.6,4.8,5.7,11c-1.3,2.7-2.7,5.2-4.4,7.6c-3.8,5.4-8.2,10.4-13.1,14.7
	c-4.7,4.3-9.7,8.2-15.1,11.5c-4.8,2.8-10.6,3.6-13.7-2c-1.9-3.4-2.4-8.2-2.5-12c-0.4-14.7,8-27.7,20.8-34.3
	C130.1,77.7,128.6,75.1,126.9,76L126.9,76z"/>
</svg>
