<?xml version="1.0" standalone="no"?><!DOCTYPE svg PUBLIC "-//W3C//DTD SVG 1.1//EN" "http://www.w3.org/Graphics/SVG/1.1/DTD/svg11.dtd"><svg t="1679669087612" class="icon" viewBox="0 0 1024 1024" version="1.1" xmlns="http://www.w3.org/2000/svg" p-id="4678" xmlns:xlink="http://www.w3.org/1999/xlink" width="200" height="200"><path d="M295.7312 111.52384h-83.95776c-56.80128 0-103.00416 46.20288-103.00416 103.00416v83.968c0 10.496 8.54016 19.0464 19.0464 19.0464h0.01024c10.50624 0 19.0464-8.5504 19.0464-19.0464v-83.968a64.9728 64.9728 0 0 1 64.91136-64.91136h83.95776c10.50624 0 19.0464-8.5504 19.0464-19.0464s-8.5504-19.0464-19.05664-19.0464zM812.22656 108.99456H728.2688a21.6064 21.6064 0 0 0-21.57568 21.57568 21.6064 21.6064 0 0 0 21.57568 21.58592h83.95776a62.464 62.464 0 0 1 62.38208 62.38208v83.968a21.6064 21.6064 0 0 0 21.58592 21.57568 21.6064 21.6064 0 0 0 21.57568-21.57568v-83.968c0-58.19392-47.34976-105.53344-105.54368-105.54368zM896.19456 703.93856a21.6064 21.6064 0 0 0-21.57568 21.57568v83.95776a62.464 62.464 0 0 1-62.38208 62.38208h-83.968a21.6064 21.6064 0 0 0-21.57568 21.58592 21.6064 21.6064 0 0 0 21.57568 21.57568h83.95776c58.19392 0 105.53344-47.33952 105.53344-105.53344v-83.95776a21.58592 21.58592 0 0 0-21.56544-21.58592z" fill="#515151" p-id="4679"></path><path d="M295.7312 108.99456h-83.95776c-58.19392 0-105.53344 47.34976-105.53344 105.53344v83.968a21.6064 21.6064 0 0 0 21.58592 21.57568 21.6064 21.6064 0 0 0 21.57568-21.57568v-83.968a62.464 62.464 0 0 1 62.38208-62.38208h83.95776a21.6064 21.6064 0 0 0 21.57568-21.58592 21.61664 21.61664 0 0 0-21.58592-21.56544zM295.7312 871.84384h-83.95776a62.464 62.464 0 0 1-62.38208-62.38208V725.504a21.6064 21.6064 0 0 0-21.58592-21.57568 21.6064 21.6064 0 0 0-21.57568 21.57568v83.95776c0 58.19392 47.34976 105.53344 105.53344 105.53344h83.95776a21.6064 21.6064 0 0 0 21.58592-21.57568 21.6064 21.6064 0 0 0-21.57568-21.57568zM812.22656 111.52384H728.2688c-10.50624 0-19.0464 8.54016-19.0464 19.0464s8.54016 19.0464 19.0464 19.0464h83.95776a64.9728 64.9728 0 0 1 64.91136 64.91136v83.968c0 10.50624 8.5504 19.0464 19.0464 19.0464 10.50624 0 19.0464-8.54016 19.0464-19.0464v-83.968c0-56.79104-46.20288-102.99392-103.00416-103.00416z" fill="#515151" p-id="4680"></path><path d="M265.19552 297.13408h64.95232v208.39424h-64.95232zM369.11104 297.13408h38.97344v208.39424h-38.97344zM447.04768 297.13408H512v208.39424h-64.95232zM550.97344 297.13408h103.91552v208.39424H550.97344zM693.85216 297.13408h64.95232v208.39424h-64.95232zM265.19552 614.7584h64.95232v112.10752h-64.95232zM369.11104 614.7584h38.97344v112.10752h-38.97344zM447.04768 614.7584H512v112.10752h-64.95232zM550.97344 614.7584h103.91552v112.10752H550.97344zM693.85216 614.7584h64.95232v112.10752h-64.95232zM852.20352 538.79808H171.79648c-11.04896 0-20.00896 10.0352-20.00896 22.40512 0 12.36992 8.96 22.40512 20.00896 22.40512h680.3968c11.04896 0 20.00896-10.0352 20.00896-22.40512 0.01024-12.38016-8.94976-22.40512-19.99872-22.40512z" fill="#515151" p-id="4681"></path></svg>